<svg width="13" height="16" viewBox="0 0 13 16" fill="none" xmlns="http://www.w3.org/2000/svg">
<path d="M10.9031 1.39379C11.0875 0.965664 10.95 0.465664 10.5719 0.190664C10.1938 -0.0843364 9.67814 -0.0593364 9.32501 0.246914L1.32501 7.24691C1.01251 7.52191 0.900014 7.96254 1.04689 8.35004C1.19376 8.73754 1.56876 9.00004 1.98439 9.00004H5.46876L3.06564 14.6063C2.88126 15.0344 3.01876 15.5344 3.39689 15.8094C3.77501 16.0844 4.29064 16.0594 4.64376 15.7532L12.6438 8.75316C12.9563 8.47816 13.0688 8.03754 12.9219 7.65004C12.775 7.26254 12.4031 7.00316 11.9844 7.00316H8.50001L10.9031 1.39379Z" fill="#10B981"/>
</svg>
