<svg width="17" height="14" viewBox="0 0 17 14" fill="none" xmlns="http://www.w3.org/2000/svg">
<path d="M2.29688 1C2.29688 0.446875 1.85 0 1.29688 0C0.74375 0 0.296875 0.446875 0.296875 1V11.5C0.296875 12.8813 1.41562 14 2.79688 14H15.2969C15.85 14 16.2969 13.5531 16.2969 13C16.2969 12.4469 15.85 12 15.2969 12H2.79688C2.52187 12 2.29688 11.775 2.29688 11.5V1ZM15.0031 3.70625C15.3938 3.31563 15.3938 2.68125 15.0031 2.29063C14.6125 1.9 13.9781 1.9 13.5875 2.29063L10.2969 5.58437L8.50313 3.79063C8.1125 3.4 7.47813 3.4 7.0875 3.79063L3.5875 7.29062C3.19688 7.68125 3.19688 8.31563 3.5875 8.70625C3.97813 9.09688 4.6125 9.09688 5.00313 8.70625L7.79688 5.91563L9.59062 7.70938C9.98125 8.1 10.6156 8.1 11.0063 7.70938L15.0063 3.70937L15.0031 3.70625Z" fill="#6B7280"/>
</svg>
