<svg width="17" height="14" viewBox="0 0 17 14" fill="none" xmlns="http://www.w3.org/2000/svg">
<path d="M8.0875 13.6593L2.44062 8.38742C2.30937 8.26555 2.18438 8.1343 2.06875 7.99992H4.7875C5.49375 7.99992 6.13125 7.57492 6.40312 6.9218L6.73125 6.1343L8.27187 9.55617C8.39062 9.8218 8.65 9.99367 8.94063 9.9968C9.23125 9.99992 9.49688 9.84055 9.62813 9.58117L10.9531 6.92805L11.0063 7.0343C11.3031 7.62805 11.9094 8.00305 12.5719 8.00305H15.8375C15.7219 8.13742 15.5969 8.26867 15.4656 8.39055L9.81875 13.6593C9.58438 13.878 9.275 13.9999 8.95312 13.9999C8.63125 13.9999 8.32188 13.878 8.0875 13.6593ZM16.6938 6.49992H12.5688C12.475 6.49992 12.3875 6.4468 12.3438 6.36242L11.6187 4.91555C11.4906 4.66242 11.2312 4.49992 10.9469 4.49992C10.6625 4.49992 10.4031 4.6593 10.275 4.91555L8.98125 7.50305L7.3875 3.94367C7.26562 3.6718 6.99062 3.4968 6.69375 3.50305C6.39687 3.5093 6.12812 3.68742 6.0125 3.96555L5.01875 6.34992C4.98125 6.44367 4.8875 6.50305 4.7875 6.50305H1.45312C1.37188 6.50305 1.29687 6.51555 1.225 6.53742C1.04688 6.03742 0.953125 5.50617 0.953125 4.96555V4.7843C0.953125 2.59992 2.53125 0.737423 4.68438 0.378048C6.10938 0.140548 7.55938 0.606173 8.57812 1.62492L8.95312 1.99992L9.32812 1.62492C10.3469 0.606173 11.7969 0.140548 13.2219 0.378048C15.375 0.737423 16.9531 2.59992 16.9531 4.7843V4.96555C16.9531 5.49367 16.8656 6.01242 16.6938 6.49992Z" fill="#6B7280"/>
</svg>
