<svg width="14" height="4" viewBox="0 0 14 4" fill="none" xmlns="http://www.w3.org/2000/svg">
<path d="M0.359375 2C0.359375 1.53587 0.543749 1.09075 0.871938 0.762563C1.20013 0.434375 1.64525 0.25 2.10938 0.25C2.5735 0.25 3.01862 0.434375 3.34681 0.762563C3.675 1.09075 3.85937 1.53587 3.85938 2C3.85938 2.46413 3.675 2.90925 3.34681 3.23744C3.01862 3.56563 2.5735 3.75 2.10938 3.75C1.64525 3.75 1.20013 3.56563 0.871938 3.23744C0.543749 2.90925 0.359375 2.46413 0.359375 2ZM5.35938 2C5.35938 1.53587 5.54375 1.09075 5.87194 0.762563C6.20013 0.434375 6.64525 0.25 7.10938 0.25C7.5735 0.25 8.01862 0.434375 8.34681 0.762563C8.675 1.09075 8.85938 1.53587 8.85938 2C8.85938 2.46413 8.675 2.90925 8.34681 3.23744C8.01862 3.56563 7.5735 3.75 7.10938 3.75C6.64525 3.75 6.20013 3.56563 5.87194 3.23744C5.54375 2.90925 5.35938 2.46413 5.35938 2ZM12.1094 0.25C12.5735 0.25 13.0186 0.434375 13.3468 0.762563C13.675 1.09075 13.8594 1.53587 13.8594 2C13.8594 2.46413 13.675 2.90925 13.3468 3.23744C13.0186 3.56563 12.5735 3.75 12.1094 3.75C11.6452 3.75 11.2001 3.56563 10.8719 3.23744C10.5437 2.90925 10.3594 2.46413 10.3594 2C10.3594 1.53587 10.5437 1.09075 10.8719 0.762563C11.2001 0.434375 11.6452 0.25 12.1094 0.25Z" fill="#6B7280"/>
</svg>
