<svg width="20" height="16" viewBox="0 0 20 16" fill="none" xmlns="http://www.w3.org/2000/svg">
<path d="M10 0C10.5531 0 11 0.446875 11 1V5.12813C11 5.64063 11.2625 6.11875 11.6938 6.39375L12 6.5875V5.16563C12 3.96875 12.9687 3 14.1656 3C14.8437 3 15.5031 3.31875 15.9094 3.9C16.3906 4.59063 17.2937 5.94375 18.1281 7.55312C18.9562 9.14375 19.7656 11.0688 19.9906 12.875C19.9969 12.9156 19.9969 12.9563 19.9969 13V13.2188C19.9969 14.7531 18.7531 16 17.2156 16C16.9875 16 16.7625 15.9719 16.5406 15.9156L14.2688 15.3469C12.9375 15.0156 12 13.8156 12 12.4375V10.1562L14.8281 11.9563C15.0625 12.1031 15.3688 12.0344 15.5188 11.8031C15.6688 11.5719 15.5969 11.2625 15.3656 11.1125L12 8.97188V8.95938L10.6219 8.08125C10.3937 7.9375 10.1875 7.76562 10 7.57812C9.81562 7.76562 9.60625 7.9375 9.37813 8.08125L8 8.95938L5.0375 10.8438L4.61562 11.1125C4.61562 11.1125 4.61563 11.1125 4.6125 11.1125C4.38125 11.2625 4.3125 11.5688 4.4625 11.8031C4.60938 12.0375 4.91875 12.1063 5.15312 11.9563L8 10.1438V12.4375C8 13.8156 7.0625 15.0156 5.72813 15.3469L3.45625 15.9156C3.23437 15.9719 3.00938 16 2.78125 16C1.24688 16 0 14.7563 0 13.2188V13C0 12.9594 0.003125 12.9156 0.00625 12.875C0.23125 11.0656 1.04062 9.14375 1.86875 7.55312C2.70625 5.94375 3.60625 4.59063 4.0875 3.9C4.49375 3.31875 5.15 3 5.83125 3C7.03125 3 8 3.96875 8 5.16563V6.5875L8.30625 6.39375C8.7375 6.11875 9 5.64063 9 5.12813V1C9 0.446875 9.44687 0 10 0Z" fill="#3B82F6"/>
</svg>
