<svg width="18" height="14" viewBox="0 0 18 14" fill="none" xmlns="http://www.w3.org/2000/svg">
<path d="M2.25 5.3125C2.25 5.58672 2.40469 5.96992 2.85117 6.37773C4.44727 5.52695 6.64102 5.03125 9 5.03125C11.359 5.03125 13.5527 5.52695 15.1488 6.37773C15.5953 5.96992 15.75 5.58672 15.75 5.3125C15.75 4.88008 15.3703 4.1875 14.066 3.53359C12.8285 2.91484 11.0391 2.5 9 2.5C6.96094 2.5 5.17148 2.91484 3.93398 3.53359C2.62969 4.1875 2.25 4.88008 2.25 5.3125ZM9 6.71875C7.34766 6.71875 5.86055 6.98594 4.6793 7.41133C5.84648 7.85078 7.34062 8.125 9 8.125C10.6594 8.125 12.1535 7.85078 13.3207 7.41133C12.1395 6.98594 10.6523 6.71875 9 6.71875ZM0 5.3125C0 3.56875 1.38516 2.29609 2.92852 1.52266C4.53867 0.717578 6.69023 0.25 9 0.25C11.3098 0.25 13.4613 0.717578 15.0715 1.52266C16.6148 2.29609 18 3.56875 18 5.3125V8.6875C18 10.4312 16.6148 11.7039 15.0715 12.4773C13.4613 13.2824 11.3098 13.75 9 13.75C6.69023 13.75 4.53867 13.2824 2.92852 12.4773C1.38516 11.7039 0 10.4312 0 8.6875V5.3125Z" fill="#3B82F6"/>
</svg>
