<svg width="13" height="14" viewBox="0 0 13 14" fill="none" xmlns="http://www.w3.org/2000/svg">
<path d="M7.14062 0C3.28125 0 0.15625 3.13438 0.15625 7C0.15625 10.8656 3.28125 14 7.14062 14C9.03437 14 10.75 13.2438 12.0094 12.0188C12.1656 11.8656 12.2062 11.6281 12.1062 11.4344C12.0062 11.2406 11.7906 11.1312 11.575 11.1687C11.2687 11.2219 10.9562 11.25 10.6344 11.25C7.60625 11.25 5.15 8.7875 5.15 5.75C5.15 3.69375 6.275 1.90313 7.94063 0.959375C8.13125 0.85 8.22812 0.63125 8.18125 0.41875C8.13437 0.20625 7.95312 0.046875 7.73438 0.028125C7.5375 0.0125 7.34063 0.00312495 7.14062 0.00312495V0Z" fill="#6B7280"/>
</svg>
